<svg width="177" height="177" viewBox="0 0 177 177" fill="none" xmlns="http://www.w3.org/2000/svg">
<path d="M88.5 88.5C112.939 88.5 132.75 68.6886 132.75 44.25C132.75 19.8114 112.939 0 88.5 0C64.0614 0 44.25 19.8114 44.25 44.25C44.25 68.6886 64.0614 88.5 88.5 88.5ZM118 44.25C118 60.5424 104.792 73.75 88.5 73.75C72.2076 73.75 59 60.5424 59 44.25C59 27.9576 72.2076 14.75 88.5 14.75C104.792 14.75 118 27.9576 118 44.25Z" fill="black"/>
<path d="M177 162.25C177 177 162.25 177 162.25 177H14.75C14.75 177 0 177 0 162.25C0 147.5 14.75 103.25 88.5 103.25C162.25 103.25 177 147.5 177 162.25ZM162.25 162.199C162.229 158.559 159.982 147.654 149.976 137.649C140.355 128.028 122.264 118 88.4999 118C54.7355 118 36.6442 128.028 27.0234 137.649C17.0179 147.654 14.771 158.559 14.75 162.199H162.25Z" fill="black"/>
</svg>
