<svg width="38" height="38" viewBox="0 0 38 38" fill="none" xmlns="http://www.w3.org/2000/svg">
<path d="M35.5032 14.4371C35.3547 13.9807 35.0745 13.5784 34.6978 13.281C34.3212 12.9835 33.8649 12.8042 33.3865 12.7657L24.6287 12.0591L21.2473 3.88168C21.0644 3.43609 20.7532 3.05495 20.3531 2.78671C19.9531 2.51847 19.4823 2.37524 19.0007 2.37524C18.519 2.37524 18.0482 2.51847 17.6482 2.78671C17.2482 3.05495 16.9369 3.43609 16.7541 3.88168L13.3756 12.0576L4.61335 12.7657C4.13416 12.8062 3.67759 12.9872 3.30083 13.2861C2.92408 13.585 2.64389 13.9884 2.49539 14.4458C2.34689 14.9032 2.33666 15.3942 2.46601 15.8574C2.59535 16.3206 2.8585 16.7353 3.22249 17.0496L9.90218 22.8134L7.8671 31.4317C7.75329 31.8999 7.78116 32.3914 7.94717 32.8437C8.11318 33.296 8.40986 33.6889 8.79953 33.9723C9.1892 34.2557 9.6543 34.417 10.1358 34.4356C10.6173 34.4542 11.0934 34.3293 11.5038 34.0768L18.9999 29.4634L26.5005 34.0768C26.911 34.3263 27.3862 34.4488 27.8662 34.4288C28.3462 34.4088 28.8095 34.2472 29.1979 33.9644C29.5862 33.6816 29.8822 33.2902 30.0486 32.8395C30.2149 32.3888 30.2442 31.899 30.1327 31.4317L28.0902 22.8119L34.7699 17.0481C35.1369 16.7343 35.4024 16.3187 35.533 15.8539C35.6635 15.3891 35.6531 14.896 35.5032 14.4371ZM33.2262 15.249L25.9973 21.4834C25.8324 21.6255 25.7098 21.8102 25.6428 22.0172C25.5757 22.2243 25.5669 22.4458 25.6173 22.6575L27.826 31.9794C27.8317 31.9923 27.8323 32.0068 27.8276 32.0201C27.8229 32.0333 27.8133 32.0443 27.8008 32.0507C27.7741 32.0714 27.7666 32.067 27.7444 32.0507L19.6219 27.0557C19.4348 26.9407 19.2195 26.8798 18.9999 26.8798C18.7803 26.8798 18.565 26.9407 18.378 27.0557L10.2555 32.0536C10.2332 32.067 10.2273 32.0714 10.1991 32.0536C10.1865 32.0472 10.1769 32.0363 10.1722 32.023C10.1675 32.0098 10.1681 31.9952 10.1738 31.9824L12.3826 22.6605C12.4329 22.4488 12.4241 22.2273 12.3571 22.0202C12.2901 21.8131 12.1674 21.6285 12.0026 21.4864L4.77367 15.252C4.75585 15.2371 4.73953 15.2238 4.75437 15.1778C4.76921 15.1318 4.78109 15.1377 4.80335 15.1347L14.2915 14.3688C14.5091 14.3501 14.7174 14.2718 14.8933 14.1424C15.0693 14.0131 15.2062 13.8376 15.289 13.6355L18.9435 4.78715C18.9554 4.76191 18.9598 4.75004 18.9955 4.75004C19.0311 4.75004 19.0355 4.76191 19.0474 4.78715L22.7109 13.6355C22.7944 13.8377 22.9321 14.0129 23.109 14.1418C23.2858 14.2707 23.4947 14.3482 23.7128 14.3658L33.2009 15.1318C33.2232 15.1318 33.2366 15.1318 33.2499 15.1748C33.2633 15.2179 33.2499 15.2342 33.2262 15.249Z" fill="black"/>
</svg>
